<svg width="22" height="22" viewBox="0 0 22 22" fill="none" xmlns="http://www.w3.org/2000/svg">
<path fill-rule="evenodd" clip-rule="evenodd" d="M1.6854 0.652844C1.44341 0.41085 1.08895 0.372968 0.893689 0.568232C0.698429 0.763497 0.73631 1.11796 0.978299 1.35996L10.4719 10.8537L0.685067 20.6407C0.443078 20.8827 0.405196 21.2372 0.600456 21.4325C0.795717 21.6277 1.15018 21.5898 1.39217 21.3478L11.179 11.5608L20.6079 20.9899C20.8499 21.2319 21.2043 21.2698 21.3996 21.0745C21.5948 20.8793 21.557 20.5248 21.315 20.2828L11.8861 10.8537L21.0217 1.71788C21.2637 1.47588 21.3016 1.12142 21.1063 0.926153C20.9111 0.730889 20.5566 0.76877 20.3146 1.01076L11.179 10.1466L1.6854 0.652844Z" fill="black"/>
</svg>
