<svg width="25" height="24" viewBox="0 0 25 24" fill="none" xmlns="http://www.w3.org/2000/svg">
<g clip-path="url(#clip0)">
<path d="M14.4601 22.6845L14.1856 22.4637H13.8333H11.1667H10.8144L10.5399 22.6845L10.2366 22.9285C5.25352 21.8344 1.5 17.3835 1.5 12.067C1.5 5.97719 6.45753 1 12.5 1C18.5425 1 23.5 5.97719 23.5 12.067C23.5 17.3835 19.7465 21.8344 14.7634 22.9285L14.4601 22.6845Z" stroke="#8D191D" stroke-width="2"/>
<path d="M16.8548 15.4828L17.371 12.2069H14.2742V9.91379C14.2742 8.99655 14.5968 8.27586 16.0161 8.27586H17.5V5.26207C16.6613 5.13103 15.7581 5 14.9194 5C12.2742 5 10.4032 6.63793 10.4032 9.58621V12.2069H7.5V15.4828H10.4032V23.8034C11.0484 23.9345 11.6935 24 12.3387 24C12.9839 24 13.629 23.9345 14.2742 23.8034V15.4828H16.8548Z" fill="#8D191D"/>
</g>
<defs>
<clipPath id="clip0">
<rect width="24" height="24" fill="white" transform="translate(0.5)"/>
</clipPath>
</defs>
</svg>
