<svg width="31" height="31" viewBox="0 0 31 31" fill="none" xmlns="http://www.w3.org/2000/svg">
<path fill-rule="evenodd" clip-rule="evenodd" d="M26.2203 9.9375C26.3872 9.40875 26.2203 9.02437 25.482 9.02437H23.0272C22.408 9.02437 22.122 9.36094 21.9551 9.72094C21.9551 9.72094 20.6923 12.7959 18.9289 14.7895C18.357 15.3661 18.095 15.5583 17.7851 15.5583C17.6183 15.5583 17.4036 15.3661 17.4036 14.8378V9.91266C17.4036 9.28828 17.2133 9 16.6887 9H12.8281C12.4466 9 12.2084 9.28828 12.2084 9.57656C12.2084 10.177 13.0902 10.3214 13.1853 12.0028V15.6562C13.1853 16.4489 13.0447 16.5937 12.7325 16.5937C11.8986 16.5937 9.87312 13.4948 8.65812 9.96375C8.42187 9.26437 8.18187 9 7.56219 9H5.08391C4.36906 9 4.25 9.33609 4.25 9.69656C4.25 10.3453 5.08391 13.612 8.13406 17.9358C10.1595 20.8889 13.0428 22.4761 15.6402 22.4761C17.2133 22.4761 17.4036 22.1156 17.4036 21.5152V19.2811C17.4036 18.5606 17.5466 18.4406 18.0472 18.4406C18.4044 18.4406 19.048 18.6323 20.5016 20.0498C22.1694 21.7312 22.4553 22.5 23.3848 22.5H25.8392C26.5541 22.5 26.8878 22.1395 26.697 21.443C26.4828 20.7464 25.6723 19.7377 24.6237 18.5367C24.0519 17.8645 23.1941 17.1197 22.932 16.7592C22.5748 16.2787 22.67 16.0866 22.932 15.6544C22.9081 15.6544 25.9109 11.3784 26.2203 9.93562" fill="white"/>
</svg>
