<svg width="24" height="24" viewBox="0 0 24 24" fill="none" xmlns="http://www.w3.org/2000/svg">
<path fill-rule="evenodd" clip-rule="evenodd" d="M15.6419 1.33079C16.2333 1.84611 16.1644 2.68717 15.8535 3.38623C14.2946 6.89145 16.8928 8.43422 19.5254 9.99739C20.7777 10.741 22.0378 11.4892 22.8619 12.4555C24.9143 14.8621 23.9849 18.7586 21.7127 20.7868C19.143 23.0806 15.4597 24 12.0309 24C8.60893 24 4.91098 23.0735 2.34914 20.7868C0.0450397 18.7301 -0.974033 15.0047 1.20001 12.4555C2.01393 11.5011 3.2711 10.7666 4.52444 10.0344C7.16849 8.48976 9.79555 6.95502 8.20836 3.38623C7.89746 2.68717 7.82852 1.84611 8.42 1.33079C10.4566 -0.4436 13.6053 -0.443596 15.6419 1.33079ZM12.031 8.63822C10.9482 11.5487 10.9482 16.3129 12.031 19.1956C13.1138 16.3129 13.1138 11.5487 12.031 8.63822ZM9.32411 8.62586C10.5815 10.3158 9.09939 11.9869 7.6217 13.6531C6.5544 14.8566 5.48939 16.0574 5.46054 17.2609C4.26188 15.6163 5.70598 13.9766 7.15746 12.3285C8.23874 11.1008 9.32411 9.86839 9.32411 8.62586ZM14.7379 8.62586C13.4805 10.3158 14.9626 11.9869 16.4403 13.6531C17.5076 14.8566 18.5726 16.0574 18.6015 17.2609C19.8001 15.6163 18.356 13.9766 16.9045 12.3285C15.8233 11.1008 14.7379 9.86839 14.7379 8.62586Z" fill="white"/>
</svg>
