<svg width="72" height="86" viewBox="0 0 72 86" fill="none" xmlns="http://www.w3.org/2000/svg">
<path opacity="0.5" d="M50 32C37.8691 32 28 41.7818 28 53.8052C28 68.7265 30.169 84.4235 31.0072 85.3487C31.7945 86.2179 33.1691 86.2163 33.955 85.3487C34.7933 84.4235 72 68.7265 72 53.8052C71.9998 41.7818 62.1307 32 50 32Z" fill="url(#paint0_linear)"/>
<path d="M32.5 0C14.5794 0 0 13.972 0 31.1458C0 52.4591 29.0843 83.7481 30.3226 85.0697C31.4857 86.3112 33.5164 86.309 34.6774 85.0697C35.9157 83.7481 65 52.4591 65 31.1458C64.9996 13.972 50.4204 0 32.5 0Z" fill="#75151C"/>
<path d="M32.5001 54C20.6448 54 11 44.3551 11 32.4999C11 20.6447 20.645 11 32.5001 11C44.3552 11 54 20.6449 54 32.5001C54 44.3553 44.3552 54 32.5001 54Z" fill="#8D191D"/>
<path d="M40.9098 29.5365C39.9488 28.6227 38.594 28.2434 37.3991 27.9075C37.1995 27.8516 37.0065 27.797 36.8214 27.7424C35.9239 27.4751 35.2578 27.2638 34.8401 26.9643C34.4999 26.5005 34.0889 26.3527 34.4999 25.5005L34.5118 25.4739C34.6176 25.236 35.2234 24.359 34.8401 23.7195C34.4078 22.9987 32.6247 23.0767 31.3426 23.0767H31.176C29.4802 23.0767 28.8126 23.5253 28.0949 24.2264C27.59 24.7204 27.9588 25.143 28.0116 25.2844C28.0724 25.4803 28.0473 25.5859 28.0949 25.7216C28.2099 26.0435 28.0513 26.5179 28.0116 26.7796C27.931 27.3016 27.1881 27.6514 26.2629 28.0139C25.8293 28.1846 25.3006 28.4295 24.9305 28.6311C24.2458 29.0033 23.6489 29.5597 23.2101 29.8578L22.9999 30.0005C20.5982 31.6168 19.8219 33.1536 20.4907 35.4711L20.5 35.5005C20.5 35.5005 20.4801 35.5845 20.4709 35.6181C20.3889 35.9329 20.0717 36.3967 20.4999 38.0005C20.9639 39.74 22.7694 40.7488 26.2629 41.8166C27.508 42.1972 30.7625 42.8242 33.4999 42.8242C34.1357 42.8242 34.7846 42.8843 35.2578 42.8242C37.7348 42.5135 38.1684 42.5205 39.0738 41.8166C39.2417 41.685 39.4267 41.5423 39.6448 41.3827C40.8873 40.4745 41.6645 39.3158 42.0968 38.5041L42.1192 38.4691L42.1338 38.4327C42.4285 37.8674 43.4127 37.2902 43.4999 37.0005C44.3988 34.0267 42.9999 30.5005 40.9098 29.5365Z" fill="white"/>
<path d="M34.1991 43C31.3426 43 27.634 42.4568 26.3352 42.0841C22.691 41.0348 20.8488 39.8054 20.3645 38.096C19.919 36.5214 20.1203 35.7953 20.2061 35.4845C20.2155 35.4529 20.2357 35.369 20.2357 35.369L20.2263 35.3401C19.5286 33.0628 20.4463 31.1031 22.9527 29.5147L23.1727 29.3745C23.6303 29.0816 24.2367 28.7433 24.9519 28.3774C25.3383 28.1808 25.8696 27.9058 26.3218 27.7394C27.2865 27.3832 27.9829 27.049 28.0661 26.5347C28.1076 26.2775 28.1882 26.0905 28.0687 25.7742C28.0191 25.6408 27.9601 25.4854 27.897 25.2929C27.842 25.154 27.426 24.5654 27.9533 24.0799C28.7007 23.391 29.8895 23.0155 31.6592 23.0155L31.784 23.0142C33.1204 23.0142 34.7358 22.8601 35.1867 23.5684C35.5865 24.1982 35.2497 25.0852 35.1397 25.319L35.1263 25.3451C34.6956 26.1812 34.7935 26.5388 35.4859 27.0064C35.9206 27.3007 36.617 27.5083 37.5535 27.771C37.7467 27.8246 37.948 27.8782 38.1559 27.9333C39.4024 28.2633 40.8153 28.636 41.8189 29.534C43.4169 30.9628 44.607 34.0584 43.6678 36.9794C43.5766 37.264 43.4021 37.7206 43.0949 38.2748L43.0788 38.3106L43.0546 38.3449C42.6038 39.1426 41.7934 40.2812 40.4959 41.1737C40.2692 41.3305 40.076 41.4708 39.9002 41.6C38.9556 42.2918 38.5249 42.6081 35.9407 42.9134C35.4483 42.9697 34.862 43 34.1991 43ZM28.9181 26.6901C28.7222 28.2207 26.5499 29.8077 25.2726 30.6177C25.1974 30.6658 25.0726 30.7621 24.9411 30.8638C24.7882 30.9821 24.6138 31.1169 24.5172 31.1746L24.2542 31.33C22.9715 32.0795 21.3735 33.0133 20.9079 35.4955C20.8998 35.523 20.6878 36.3715 21.1387 37.9668C21.6619 39.8137 23.8517 40.493 26.625 41.3525L26.7592 41.3938C27.5334 41.633 30.6422 42.2093 33.7483 42.2093C34.7385 42.2093 35.6455 42.1501 36.4452 42.0332C39.6788 41.5602 41.8403 38.7644 42.2415 38.041C43.3297 35.4212 41.1118 31.9777 39.0938 30.4953C38.4525 30.0236 37.8312 29.6371 37.2301 29.2631C36.0239 28.5122 34.8861 27.8026 34.4004 26.7726C34.281 26.5581 34.2287 25.8815 34.2166 25.7838C34.1951 25.5954 34.8029 24.828 34.8029 24.828C34.8029 24.828 33.8127 25.0618 33.4424 25.0618C32.9218 25.0605 32.4938 25.0164 32.0577 24.8377C31.6203 24.6575 31.2071 24.6658 30.7388 24.6658C30.5322 24.6658 29.5916 25.0687 29.3555 25.0687C29.0563 25.0687 28.427 24.9271 28.427 24.9271C28.427 24.9271 28.9597 26.2995 28.9181 26.6901ZM37.1845 28.5425C37.3361 28.6387 37.4945 28.7378 37.6581 28.8381C38.2418 29.2026 38.9019 29.6124 39.5567 30.0951C40.9186 31.0962 43.0707 33.595 43.3028 35.8874L43.323 35.1105C43.4115 32.8496 42.2965 31.0206 41.3144 30.1418C40.2343 29.1764 38.7248 28.7529 37.3925 28.3802L36.7699 28.2619L37.1845 28.5425ZM27.4287 27.8439C26.6693 28.2688 25.9313 28.6415 25.3061 28.9605C24.4756 29.3855 23.696 29.7829 23.2667 30.0552C21.5224 31.1609 20.6382 32.3683 20.5644 33.7462V34.4517L20.7657 33.8013C21.6203 32.041 23.1217 31.1512 24.2179 30.5008C24.4004 30.3935 24.5722 30.2917 24.7224 30.1955C25.9206 29.4364 26.8504 28.7598 27.5562 28.0158L28.0674 27.5372L27.4287 27.8439ZM30.6905 24.1611C31.2782 24.1611 31.7652 24.1693 32.2362 24.3619C32.7608 24.5778 33.1848 24.4499 33.5846 24.4499C33.6249 24.4499 33.6665 24.4485 33.7067 24.4471C34.1522 24.4265 35.3356 24.2188 34.5976 23.7485C33.8919 23.2988 32.5636 23.4927 31.5854 23.4322C31.4472 23.424 29.3836 23.3593 28.6242 24.0772C28.3894 24.3 29.0321 24.3866 29.3072 24.3866C29.4843 24.3866 29.6815 24.3536 29.8922 24.2876C30.1619 24.2023 30.4235 24.1611 30.6905 24.1611Z" fill="#132A3E"/>
<path d="M23.276 37.0646C23.0305 37.0646 22.738 36.978 22.738 36.5682C22.738 35.699 23.0372 34.3445 25.6187 32.6365C27.3509 31.4909 28.5035 30.0607 28.9664 29.1833C28.9664 29.1847 28.9664 29.1847 28.969 29.1847C28.9731 29.1847 28.9798 29.1833 28.9905 29.1833C29.0469 29.1833 29.1032 29.2149 29.1113 29.2315C28.7705 30.0222 27.5911 31.8086 26.1433 33.0793C24.1723 34.8079 23.7188 35.5546 23.8275 36.8845C23.8087 36.934 23.5753 37.0646 23.276 37.0646Z" fill="#132A3E"/>
<path d="M36.1071 37.3603C35.8616 37.3603 35.6294 37.2764 35.5154 37.1458C35.4496 37.0715 35.4228 36.9876 35.4322 36.8872C35.5047 36.1419 35.4577 34.8753 35.0914 33.7614C34.9787 33.419 34.7882 33.0105 34.5668 32.5361C34.1723 31.6889 33.6812 30.6355 33.3445 29.358C33.3418 29.3456 33.3391 29.3277 33.3458 29.3195C33.3552 29.3057 33.3874 29.2933 33.429 29.2933C33.4894 29.2933 33.5377 29.3195 33.5417 29.3442C33.6222 29.754 34.4809 31.6394 35.5047 33.4052C36.4278 34.9977 36.5673 36.3371 36.523 37.1801C36.5163 37.2833 36.3379 37.3603 36.1071 37.3603Z" fill="#132A3E"/>
<path d="M39.7915 36.8996C39.5889 36.8996 39.4735 36.7318 39.4735 36.4403C39.4735 35.2301 38.6309 33.7352 37.1604 32.338C36.1916 31.418 35.3329 29.9796 35.2256 29.6701C35.2215 29.6701 35.2417 29.6619 35.2739 29.6619C35.3262 29.6619 35.3624 29.6811 35.3691 29.6894C35.7569 30.3742 37.0476 31.6834 37.6742 32.2803C38.9704 33.5125 40.2356 34.8492 40.2356 36.4403C40.237 36.7112 40.0022 36.8996 39.7915 36.8996Z" fill="#132A3E"/>
<path d="M31.4539 36.4733C31.3439 36.4733 31.2768 36.4375 31.2554 36.366C30.7455 34.6511 31.5881 31.5707 31.9061 30.4114C31.9504 30.2477 31.9853 30.124 32.0014 30.0524C32.0148 29.9974 32.0859 29.9933 32.1074 29.9933C32.1584 29.9933 32.1932 30.0126 32.1986 30.0208C31.8243 32.1125 31.6069 33.7683 32.1959 35.8929C32.2161 35.9645 32.1946 36.0442 32.1329 36.1281C31.9947 36.3138 31.6834 36.4733 31.4539 36.4733Z" fill="#132A3E"/>
<path d="M27.3536 38.1758C27.2409 38.1758 26.8639 38.1469 26.7579 37.777C26.3459 36.344 26.5968 35.3387 27.7118 33.936C28.541 32.895 30.0693 30.7208 30.5442 29.1737C30.5483 29.1737 30.5778 29.1586 30.6274 29.1586C30.6731 29.1586 30.7066 29.1723 30.7173 29.1874C30.7254 29.1971 30.7214 29.2163 30.7187 29.2315C30.3497 30.6369 29.3528 32.8345 28.4001 34.3431C27.7977 35.2975 27.3348 36.2299 27.7588 37.9791C27.7628 37.9956 27.7642 38.0163 27.7427 38.0438C27.6957 38.107 27.5522 38.1758 27.3536 38.1758Z" fill="#132A3E"/>
<defs>
<linearGradient id="paint0_linear" x1="32.7568" y1="86" x2="62.1714" y2="55.0657" gradientUnits="userSpaceOnUse">
<stop/>
<stop offset="1" stop-opacity="0"/>
</linearGradient>
</defs>
</svg>
