<svg width="16" height="20" viewBox="0 0 16 20" fill="none" xmlns="http://www.w3.org/2000/svg">
<path d="M7.99996 0C4.08952 0 0.916626 2.87991 0.916626 6.42857C0.916626 12.1429 7.99996 20 7.99996 20C7.99996 20 15.0833 12.1429 15.0833 6.42857C15.0833 2.87991 11.9104 0 7.99996 0ZM7.99996 10C7.43958 10 6.89178 9.83243 6.42584 9.51849C5.9599 9.20454 5.59675 8.75831 5.3823 8.23624C5.16785 7.71416 5.11174 7.13969 5.22107 6.58546C5.33039 6.03123 5.60024 5.52213 5.99649 5.12255C6.39274 4.72297 6.89759 4.45086 7.4472 4.34061C7.99682 4.23037 8.5665 4.28695 9.08423 4.5032C9.60195 4.71945 10.0445 5.08566 10.3558 5.55551C10.6671 6.02537 10.8333 6.57777 10.8333 7.14286C10.8325 7.90036 10.5337 8.62661 10.0025 9.16225C9.47135 9.69789 8.75115 9.99917 7.99996 10Z" fill="white"/>
</svg>
