<svg width="15" height="21" viewBox="0 0 15 21" fill="none" xmlns="http://www.w3.org/2000/svg">
<path d="M7.08333 0.5C3.17289 0.5 0 3.37991 0 6.92857C0 12.6429 7.08333 20.5 7.08333 20.5C7.08333 20.5 14.1667 12.6429 14.1667 6.92857C14.1667 3.37991 10.9938 0.5 7.08333 0.5ZM7.08333 10.5C6.52295 10.5 5.97516 10.3324 5.50922 10.0185C5.04328 9.70454 4.68012 9.25831 4.46567 8.73624C4.25123 8.21416 4.19512 7.63969 4.30444 7.08546C4.41377 6.53123 4.68362 6.02213 5.07986 5.62255C5.47611 5.22297 5.98096 4.95086 6.53058 4.84061C7.08019 4.73037 7.64988 4.78695 8.1676 5.0032C8.68533 5.21945 9.12783 5.58566 9.43916 6.05551C9.75049 6.52537 9.91667 7.07777 9.91667 7.64286C9.91585 8.40036 9.61707 9.12661 9.0859 9.66225C8.55472 10.1979 7.83453 10.4992 7.08333 10.5Z" fill="#8D191D"/>
</svg>
