<svg width="25" height="25" viewBox="0 0 25 25" fill="none" xmlns="http://www.w3.org/2000/svg">
<path d="M17.5759 10.8963C18.1016 10.8977 18.6223 10.7949 19.1079 10.5937C19.5935 10.3926 20.0344 10.0971 20.405 9.72438L24.255 5.87714C24.5595 5.57266 24.5875 5.0772 24.2975 4.75772C24.2247 4.67745 24.1364 4.61281 24.0378 4.56773C23.9393 4.52264 23.8326 4.49804 23.7243 4.49542C23.6159 4.4928 23.5082 4.51222 23.4076 4.5525C23.307 4.59277 23.2156 4.65307 23.139 4.72972L19.7075 8.15848C19.5922 8.27355 19.4361 8.33819 19.2732 8.33819C19.1104 8.33819 18.9542 8.27355 18.8389 8.15848C18.5994 7.9195 18.6124 7.51553 18.8514 7.27654L22.268 3.86028C22.3446 3.7837 22.4048 3.69236 22.445 3.59181C22.4853 3.49126 22.5047 3.38359 22.5021 3.27532C22.4994 3.16705 22.4749 3.06045 22.4298 2.96196C22.3848 2.86347 22.3202 2.77515 22.24 2.70236C22.0952 2.57105 21.9065 2.4988 21.711 2.49987C21.4895 2.50003 21.2771 2.58815 21.1205 2.74486L17.7069 6.15762C17.5917 6.27269 17.4355 6.33732 17.2727 6.33732C17.1098 6.33732 16.9536 6.27269 16.8384 6.15762C16.5994 5.91864 16.6119 5.51467 16.8509 5.27568L20.2675 1.86042C20.3441 1.78384 20.4043 1.6925 20.4445 1.59195C20.4848 1.4914 20.5041 1.38373 20.5015 1.27546C20.4989 1.16719 20.4743 1.06058 20.4293 0.962095C20.3842 0.863607 20.3197 0.77529 20.2395 0.702498C20.0947 0.571188 19.9059 0.498936 19.7105 0.500012C19.489 0.500274 19.2766 0.588377 19.12 0.744995L15.2724 4.59223C14.8996 4.96289 14.6041 5.40381 14.4029 5.88947C14.2017 6.37513 14.0989 6.89587 14.1004 7.42153V7.83301C14.1005 7.93821 14.0798 8.04239 14.0396 8.13959C13.9993 8.23679 13.9403 8.3251 13.8659 8.39947L12.0854 10.1803C12.0668 10.1989 12.0447 10.2137 12.0204 10.2238C11.9962 10.2338 11.9701 10.239 11.9438 10.239C11.9176 10.239 11.8915 10.2338 11.8673 10.2238C11.843 10.2137 11.8209 10.1989 11.8023 10.1803L3.13822 1.51644C2.98868 1.36675 2.78593 1.28239 2.57433 1.28183C2.36274 1.28126 2.15954 1.36454 2.00921 1.51344C1.25169 2.26389 0.847188 3.32332 0.847188 4.57673C0.842188 6.64659 1.9302 9.02642 3.68673 10.7803L7.95929 15.0525C8.56655 15.6585 9.3894 15.9989 10.2473 15.9989C10.5208 15.9991 10.7932 15.9641 11.0578 15.8949C11.1243 15.8775 11.1927 15.8686 11.2613 15.8685C11.4622 15.8685 11.6556 15.9444 11.8028 16.0809L12.3724 16.6069C12.5192 16.757 12.6018 16.9584 12.6024 17.1684V17.4453C12.6009 18.075 12.8484 18.6797 13.2909 19.1277L17.7934 23.7059L17.7979 23.7109C18.2977 24.2105 18.9754 24.4912 19.6821 24.4912C20.3888 24.4911 21.0666 24.2104 21.5662 23.7107C22.0659 23.211 22.3466 22.5332 22.3466 21.8266C22.3465 21.12 22.0657 20.4423 21.566 19.9427L14.8169 13.1941C14.7983 13.1756 14.7835 13.1535 14.7735 13.1292C14.7634 13.105 14.7582 13.0789 14.7582 13.0526C14.7582 13.0264 14.7634 13.0003 14.7735 12.9761C14.7835 12.9518 14.7983 12.9297 14.8169 12.9112L16.5974 11.1308C16.6717 11.0564 16.76 10.9974 16.8571 10.9572C16.9542 10.917 17.0583 10.8963 17.1634 10.8963H17.5759Z" fill="#ABABAB"/>
<path d="M10.2466 17.6005C8.96579 17.5978 7.73763 17.0903 6.82859 16.1881L6.13558 15.4951C6.06059 15.4203 5.95899 15.3783 5.85308 15.3783C5.74715 15.3783 5.64556 15.4203 5.57057 15.4951L1.32051 19.7228C0.563 20.4803 0.292496 21.5952 0.667502 22.6871C0.68849 22.7486 0.713374 22.8088 0.742003 22.8671C1.24651 23.9 2.22552 24.5 3.29654 24.5C3.66486 24.5009 4.0297 24.4287 4.36993 24.2876C4.71015 24.1465 5.01899 23.9393 5.27857 23.678L10.9466 17.9834C10.9705 17.9591 10.9888 17.9298 11.0002 17.8977C11.0116 17.8656 11.0158 17.8314 11.0126 17.7975V17.7845C11.0104 17.7533 11.0019 17.7229 10.9876 17.6951C10.9733 17.6673 10.9536 17.6427 10.9295 17.6227C10.9054 17.6028 10.8776 17.5879 10.8476 17.579C10.8177 17.5701 10.7862 17.5674 10.7551 17.571C10.5863 17.5897 10.4165 17.5995 10.2466 17.6005Z" fill="#ABABAB"/>
</svg>
