<svg width="29" height="20" viewBox="0 0 29 20" fill="none" xmlns="http://www.w3.org/2000/svg">
<path fill-rule="evenodd" clip-rule="evenodd" d="M0 1.43524C0 1.09455 0.27743 0.818359 0.619658 0.818359H28.3803C28.7226 0.818359 29 1.09455 29 1.43524C29 1.77594 28.7226 2.05213 28.3803 2.05213H0.619658C0.27743 2.05213 0 1.77594 0 1.43524ZM0 10.3184C0 9.97766 0.27743 9.70148 0.619658 9.70148H17.2761C17.6183 9.70148 17.8957 9.97766 17.8957 10.3184C17.8957 10.6591 17.6183 10.9352 17.2761 10.9352H0.619658C0.27743 10.9352 0 10.6591 0 10.3184ZM0 19.2015C0 18.8608 0.27743 18.5846 0.619658 18.5846H28.3803C28.7226 18.5846 29 18.8608 29 19.2015C29 19.5422 28.7226 19.8184 28.3803 19.8184H0.619658C0.27743 19.8184 0 19.5422 0 19.2015Z" fill="black"/>
</svg>
