<svg width="25" height="25" viewBox="0 0 25 25" fill="none" xmlns="http://www.w3.org/2000/svg">
<path d="M17.4998 2.74982C18.8248 2.75378 20.0943 3.28187 21.0312 4.21876C21.9681 5.15566 22.4962 6.42522 22.5002 7.75018V17.7498C22.4962 19.0748 21.9681 20.3443 21.0312 21.2812C20.0943 22.2181 18.8248 22.7462 17.4998 22.7502H7.50018C6.17522 22.7462 4.90566 22.2181 3.96876 21.2812C3.03187 20.3443 2.50378 19.0748 2.49982 17.7498V7.75018C2.50378 6.42522 3.03187 5.15566 3.96876 4.21876C4.90566 3.28187 6.17522 2.75378 7.50018 2.74982H17.4998ZM17.4998 0.75H7.50018C3.65 0.75 0.5 3.9 0.5 7.75018V17.7498C0.5 21.6 3.65 24.75 7.50018 24.75H17.4998C21.35 24.75 24.5 21.6 24.5 17.7498V7.75018C24.5 3.9 21.35 0.75 17.4998 0.75Z" fill="white"/>
<path d="M19 7.75C18.7033 7.75 18.4133 7.66203 18.1666 7.49721C17.92 7.33238 17.7277 7.09811 17.6142 6.82403C17.5006 6.54994 17.4709 6.24834 17.5288 5.95737C17.5867 5.66639 17.7296 5.39912 17.9393 5.18934C18.1491 4.97956 18.4164 4.8367 18.7074 4.77882C18.9983 4.72094 19.2999 4.75065 19.574 4.86418C19.8481 4.97771 20.0824 5.16997 20.2472 5.41665C20.412 5.66332 20.5 5.95333 20.5 6.25C20.5004 6.4471 20.4619 6.64235 20.3867 6.82453C20.3115 7.00671 20.201 7.17223 20.0616 7.31161C19.9222 7.45098 19.7567 7.56145 19.5745 7.63668C19.3923 7.71191 19.1971 7.75042 19 7.75Z" fill="white"/>
<path d="M12.5 8.74884C13.2912 8.74884 14.0646 8.98345 14.7224 9.423C15.3802 9.86254 15.8929 10.4873 16.1957 11.2182C16.4984 11.9492 16.5777 12.7535 16.4233 13.5294C16.269 14.3054 15.888 15.0181 15.3286 15.5776C14.7691 16.137 14.0564 16.518 13.2804 16.6723C12.5044 16.8267 11.7001 16.7475 10.9692 16.4447C10.2383 16.1419 9.61352 15.6292 9.17398 14.9714C8.73443 14.3136 8.49982 13.5402 8.49982 12.749C8.50096 11.6885 8.92277 10.6717 9.6727 9.92172C10.4226 9.17179 11.4394 8.74998 12.5 8.74884ZM12.5 6.74902C11.3133 6.74902 10.1533 7.10092 9.16658 7.76021C8.17989 8.41949 7.41085 9.35657 6.95673 10.4529C6.5026 11.5493 6.38378 12.7557 6.61529 13.9196C6.8468 15.0835 7.41825 16.1525 8.25736 16.9917C9.09648 17.8308 10.1656 18.4022 11.3295 18.6337C12.4933 18.8652 13.6997 18.7464 14.7961 18.2923C15.8925 17.8382 16.8295 17.0691 17.4888 16.0824C18.1481 15.0957 18.5 13.9357 18.5 12.749C18.5 11.1577 17.8679 9.6316 16.7426 8.50638C15.6174 7.38116 14.0913 6.74902 12.5 6.74902Z" fill="white"/>
</svg>
