<svg width="24" height="20" viewBox="0 0 24 20" fill="none" xmlns="http://www.w3.org/2000/svg">
<path fill-rule="evenodd" clip-rule="evenodd" d="M3.59926 10.9228C3.59777 10.9223 3.59628 10.9219 3.59479 10.9214C3.59394 10.9212 3.59308 10.9209 3.59223 10.9207C2.63648 10.6285 1.93463 10.414 2.00489 9.86919C2.04647 9.54683 2.50315 9.21715 3.37494 8.88015C3.40548 8.86722 3.43596 8.85431 3.46638 8.84143C3.47199 8.83905 3.4776 8.83667 3.48322 8.8343C8.79181 6.58628 12.3357 5.10259 14.1149 4.38324C19.2293 2.31543 20.292 1.95623 20.9847 1.94424C21.137 1.94176 21.4776 1.97846 21.6983 2.1525C21.8846 2.29945 21.9359 2.49797 21.9604 2.6373C21.9849 2.77663 22.0155 3.09402 21.9912 3.34203C21.714 6.17271 20.5148 13.042 19.9047 16.2124C19.6466 17.554 19.1382 18.0038 18.6461 18.0478C17.7992 18.1235 17.1137 17.6485 16.3507 17.1197C16.1502 16.9808 15.9443 16.8381 15.7287 16.7007C14.8826 16.1616 14.2287 15.7287 13.573 15.2947C12.9726 14.8972 12.3709 14.4989 11.6188 14.0171C10.0539 13.0147 10.709 12.4008 11.5826 11.5822C11.627 11.5406 11.6721 11.4984 11.7174 11.4555C11.8163 11.3622 11.9165 11.266 12.0155 11.1661C12.08 11.101 12.3952 10.8161 12.8397 10.4144C13.6643 9.66916 14.9337 8.522 15.8709 7.63144C16.2493 7.2719 16.5735 6.95418 16.7925 6.72162C16.9688 6.53432 17.0769 6.40226 17.09 6.34807C17.1014 6.3008 17.112 6.12461 17.0043 6.03157C16.8966 5.93853 16.7377 5.97035 16.623 5.99565C16.5941 6.00203 16.4884 6.05991 16.3059 6.16929C16.0702 6.31058 15.7064 6.5378 15.2144 6.85096C14.2104 7.49012 12.6726 8.48726 10.6012 9.8424C10.5505 9.87557 10.4994 9.90896 10.4481 9.94256C9.94743 10.2702 9.41638 10.6182 8.85492 10.9866C8.11994 11.4772 7.45422 11.7162 6.85775 11.7037C6.2002 11.6899 4.93533 11.3423 3.99502 11.0452C3.85942 11.0023 3.72709 10.9619 3.59926 10.9228ZM8.70442 13.2785C8.74968 13.5602 8.84379 13.8455 8.99515 14.1273C9.35747 14.8018 9.95937 15.2824 10.5183 15.6405C11.2575 16.114 11.8482 16.505 12.4496 16.9031L12.5303 16.9565C13.16 17.3733 13.8063 17.8003 14.6323 18.3267C14.8123 18.4414 14.9813 18.5584 15.1805 18.6964C15.2231 18.726 15.2671 18.7564 15.3129 18.788C15.5532 18.954 15.8471 19.1542 16.1618 19.3339C16.8026 19.6999 17.7046 20.0843 18.8294 19.9837C20.755 19.8115 21.5768 18.0966 21.8706 16.5699C22.4794 13.4063 23.6953 6.45591 23.9822 3.52623C24.0281 3.05714 23.9758 2.55951 23.9317 2.30935C23.8858 2.04875 23.7287 1.25035 22.9585 0.642844C22.5304 0.305182 22.0735 0.159316 21.7808 0.0913131C21.4753 0.0203307 21.1839 -0.00340674 20.9511 0.000385592L20.9491 0.000421591C20.2435 0.0126317 19.5334 0.209818 18.5257 0.565292C17.4835 0.932909 15.8967 1.55723 13.3468 2.5882C11.5407 3.31844 7.95479 4.81996 2.60433 7.08588C2.1072 7.27977 1.60586 7.51638 1.18615 7.81937C0.809754 8.09109 0.143708 8.67141 0.0204217 9.62736C-0.0696541 10.3258 0.142753 10.981 0.5686 11.4898C0.930759 11.9224 1.37738 12.1666 1.66565 12.3023C2.09058 12.5024 2.66786 12.6777 3.09652 12.808C3.2 12.8394 3.29482 12.8682 3.37675 12.8941C3.8743 13.0513 4.47181 13.2265 5.04596 13.3664C5.57369 13.4951 6.24297 13.6354 6.81455 13.6474C7.47963 13.6614 8.11325 13.5172 8.70442 13.2785ZM3.39047 8.79322C3.39074 8.79314 3.39576 8.79556 3.40471 8.80072C3.39466 8.79587 3.39019 8.7933 3.39047 8.79322ZM3.57102 10.9409C3.57127 10.9408 3.5716 10.9405 3.57202 10.9402C3.56994 10.9418 3.56953 10.942 3.57102 10.9409Z" fill="#8D191D"/>
</svg>
