<svg width="20" height="24" viewBox="0 0 20 24" fill="none" xmlns="http://www.w3.org/2000/svg">
<path d="M4.78106 19.8236C4.78106 17.1347 6.80174 15.3764 8.00642 14.5676C8.78484 14.045 9.24965 13.0851 9.24965 12C9.24965 10.9149 8.78484 9.95496 8.00642 9.43245C6.80174 8.62373 4.78106 6.86535 4.78106 4.17647V1.64694H15.219L15.2188 4.17647C15.2188 6.86535 13.1982 8.62373 11.9936 9.43229C11.2151 9.95504 10.7502 10.915 10.7502 12C10.7502 13.0852 11.2151 14.045 11.9935 14.5676C13.1982 15.3764 15.2188 17.1347 15.219 19.8236V22.353H4.78106V19.8236Z" fill="white"/>
<path fill-rule="evenodd" clip-rule="evenodd" d="M18.2771 22.353H16.8659V19.8236C16.8659 17.2646 15.4616 14.9124 12.9115 13.2C12.5944 12.9871 12.3974 12.5274 12.3974 11.9999C12.3974 11.4724 12.5944 11.0128 12.9117 10.7997C15.4616 9.08757 16.8659 6.73533 16.8661 4.17631V1.64694H18.2771C18.7318 1.64694 19.1004 1.2783 19.1004 0.823431C19.1004 0.368564 18.7318 0 18.2771 0H1.72297C1.26826 0 0.899536 0.368564 0.899536 0.823351C0.899536 1.27822 1.26826 1.64686 1.72297 1.64686H3.13411V4.17639C3.13411 6.73541 4.53831 9.08765 7.08853 10.7998C7.40562 11.0129 7.60271 11.4724 7.60271 12C7.60271 12.5276 7.40562 12.9872 7.08836 13.2003C4.53831 14.9124 3.13411 17.2647 3.13411 19.8237V22.3531H1.72297C1.26826 22.3531 0.899536 22.7218 0.899536 23.1766C0.899536 23.6314 1.26826 24 1.72297 24H18.277C18.7317 24 19.1004 23.6315 19.1004 23.1766C19.1004 22.7217 18.7318 22.353 18.2771 22.353ZM8.00642 14.5676C6.80174 15.3764 4.78106 17.1347 4.78106 19.8236V22.353H15.219V19.8236C15.2188 17.1347 13.1982 15.3764 11.9935 14.5676C11.2151 14.045 10.7502 13.0852 10.7502 12C10.7502 10.915 11.2151 9.95504 11.9936 9.43229C13.1982 8.62373 15.2188 6.86535 15.2188 4.17647L15.219 1.64694H4.78106V4.17647C4.78106 6.86535 6.80174 8.62373 8.00642 9.43245C8.78484 9.95496 9.24965 10.9149 9.24965 12C9.24965 13.0851 8.78484 14.045 8.00642 14.5676Z" fill="white"/>
</svg>
