<svg width="20" height="15" viewBox="0 0 20 15" fill="none" xmlns="http://www.w3.org/2000/svg">
<path fill-rule="evenodd" clip-rule="evenodd" d="M18.6398 7.68633C18.7129 7.54329 18.7491 7.38625 18.7454 7.22781C18.7417 7.06937 18.6982 6.91394 18.6186 6.774C18.4601 6.50458 18.2786 6.24747 18.076 6.00517C17.9785 5.8815 17.8685 5.74267 17.7398 5.5735C15.8335 3.05233 13.0109 1.41667 9.97705 1.41667C6.96821 1.41667 4.16813 3.02783 2.26182 5.507C2.15995 5.63915 2.05702 5.7706 1.95306 5.90133C1.72255 6.17429 1.51604 6.46417 1.33555 6.76817C1.25465 6.9103 1.21069 7.0682 1.20722 7.22911C1.20374 7.39002 1.24085 7.54944 1.31555 7.6945L1.3168 7.69683C1.66806 8.33383 2.07932 8.811 2.64808 9.46783C4.54689 11.667 7.17447 13.0833 9.97705 13.0833C12.8309 13.0833 15.501 11.6168 17.4023 9.3535L17.5073 9.2275C17.9885 8.65583 18.336 8.24167 18.6398 7.68633ZM0.231764 6.22333C-0.0432436 6.60833 -0.109496 7.65833 0.231764 8.22883C0.694278 9.07117 1.08679 9.52383 1.60055 10.1142L1.67431 10.1993C3.92062 12.8033 6.84446 14.25 9.97705 14.25C13.1084 14.25 16.136 12.7532 18.3873 10.0733C18.4648 9.98 18.5398 9.89133 18.6148 9.805C19.0148 9.33717 19.3686 8.92183 19.7548 8.21833C20.1611 7.48333 19.9986 6.66667 19.7273 6.23033C19.5266 5.8875 19.2913 5.56327 19.0248 5.262C18.9273 5.14417 18.8336 5.03217 18.7461 4.91667C16.4922 1.93933 13.1084 0.25 9.9758 0.25C6.84446 0.25 3.49936 1.895 1.24429 4.82683C1.1654 4.92793 1.08539 5.02827 1.00429 5.12783C0.712939 5.47211 0.453654 5.839 0.229264 6.2245L0.231764 6.22333ZM12.4996 7.25C12.4996 7.86884 12.2362 8.46233 11.7674 8.89992C11.2985 9.3375 10.6626 9.58333 9.99955 9.58333C9.33649 9.58333 8.70059 9.3375 8.23173 8.89992C7.76288 8.46233 7.49948 7.86884 7.49948 7.25C7.49948 6.63116 7.76288 6.03767 8.23173 5.60008C8.70059 5.1625 9.33649 4.91667 9.99955 4.91667C10.6626 4.91667 11.2985 5.1625 11.7674 5.60008C12.2362 6.03767 12.4996 6.63116 12.4996 7.25ZM13.7497 7.25C13.7497 8.17826 13.3546 9.0685 12.6513 9.72487C11.948 10.3813 10.9941 10.75 9.99955 10.75C9.00496 10.75 8.0511 10.3813 7.34782 9.72487C6.64454 9.0685 6.24944 8.17826 6.24944 7.25C6.24944 6.32174 6.64454 5.4315 7.34782 4.77513C8.0511 4.11875 9.00496 3.75 9.99955 3.75C10.9941 3.75 11.948 4.11875 12.6513 4.77513C13.3546 5.4315 13.7497 6.32174 13.7497 7.25Z" fill="#ABABAB"/>
</svg>
