<svg width="31" height="30" viewBox="0 0 31 30" fill="none" xmlns="http://www.w3.org/2000/svg">
<path fill-rule="evenodd" clip-rule="evenodd" d="M25.9821 9.40278C26.1453 8.89361 25.9821 8.52347 25.2602 8.52347H22.8599C22.2545 8.52347 21.9749 8.84757 21.8117 9.19424C21.8117 9.19424 20.577 12.1553 18.8527 14.0751C18.2936 14.6303 18.0374 14.8154 17.7344 14.8154C17.5712 14.8154 17.3613 14.6303 17.3613 14.1216V9.37885C17.3613 8.7776 17.1752 8.5 16.6623 8.5H12.8875C12.5144 8.5 12.2816 8.7776 12.2816 9.05521C12.2816 9.63344 13.1437 9.77247 13.2368 11.3916V14.9097C13.2368 15.673 13.0993 15.8125 12.794 15.8125C11.9786 15.8125 9.99817 12.8284 8.81017 9.42806C8.57917 8.75458 8.34451 8.5 7.73859 8.5H5.31538C4.61642 8.5 4.5 8.82365 4.5 9.17076C4.5 9.79549 5.31538 12.9412 8.29776 17.1048C10.2782 19.9486 13.0974 21.477 15.6371 21.477C17.1752 21.477 17.3613 21.1299 17.3613 20.5516V18.4003C17.3613 17.7065 17.5011 17.591 17.9906 17.591C18.3399 17.591 18.9691 17.7756 20.3904 19.1406C22.0212 20.7597 22.3008 21.5 23.2097 21.5H25.6095C26.3084 21.5 26.6348 21.1529 26.4482 20.4821C26.2388 19.8114 25.4463 18.84 24.421 17.6835C23.8619 17.0362 23.0231 16.319 22.7669 15.9718C22.4176 15.5092 22.5107 15.3241 22.7669 14.9079C22.7435 14.9079 25.6796 10.7903 25.9821 9.40097" fill="#8D191D"/>
</svg>
